<svg width="235" height="48" viewBox="0 0 235 48" fill="none" xmlns="http://www.w3.org/2000/svg">
<path d="M6.78756 47.696C4.16356 47.696 2.16356 47.216 0.787564 46.256L2.80356 40.832C3.66756 41.44 4.72356 41.744 5.97156 41.744C6.93156 41.744 7.68356 41.424 8.22756 40.784C8.77156 40.176 9.04356 39.248 9.04356 38V12.176H16.5316V37.952C16.5316 40.96 15.6676 43.328 13.9396 45.056C12.2436 46.816 9.85956 47.696 6.78756 47.696ZM12.7876 8.576C11.4116 8.576 10.2916 8.176 9.42756 7.376C8.56356 6.576 8.13156 5.584 8.13156 4.4C8.13156 3.216 8.56356 2.224 9.42756 1.424C10.2916 0.623998 11.4116 0.223997 12.7876 0.223997C14.1636 0.223997 15.2836 0.607998 16.1476 1.376C17.0116 2.144 17.4436 3.104 17.4436 4.256C17.4436 5.504 17.0116 6.544 16.1476 7.376C15.2836 8.176 14.1636 8.576 12.7876 8.576ZM36.2423 11.792C40.2423 11.792 43.3143 12.752 45.4583 14.672C47.6023 16.56 48.6743 19.424 48.6743 23.264V38H41.6663V34.784C40.2583 37.184 37.6343 38.384 33.7943 38.384C31.8103 38.384 30.0823 38.048 28.6103 37.376C27.1703 36.704 26.0663 35.776 25.2983 34.592C24.5303 33.408 24.1463 32.064 24.1463 30.56C24.1463 28.16 25.0423 26.272 26.8343 24.896C28.6583 23.52 31.4583 22.832 35.2343 22.832H41.1863C41.1863 21.2 40.6903 19.952 39.6983 19.088C38.7063 18.192 37.2183 17.744 35.2343 17.744C33.8583 17.744 32.4983 17.968 31.1543 18.416C29.8423 18.832 28.7223 19.408 27.7943 20.144L25.1063 14.912C26.5143 13.92 28.1943 13.152 30.1463 12.608C32.1303 12.064 34.1623 11.792 36.2423 11.792ZM35.6663 33.344C36.9463 33.344 38.0823 33.056 39.0743 32.48C40.0663 31.872 40.7703 30.992 41.1863 29.84V27.2H36.0503C32.9783 27.2 31.4423 28.208 31.4423 30.224C31.4423 31.184 31.8103 31.952 32.5463 32.528C33.3143 33.072 34.3543 33.344 35.6663 33.344ZM73.5473 11.792C76.7473 11.792 79.3233 12.752 81.2753 14.672C83.2593 16.592 84.2513 19.44 84.2513 23.216V38H76.7633V24.368C76.7633 22.32 76.3153 20.8 75.4193 19.808C74.5233 18.784 73.2273 18.272 71.5313 18.272C69.6433 18.272 68.1393 18.864 67.0193 20.048C65.8993 21.2 65.3393 22.928 65.3393 25.232V38H57.8513V12.176H65.0033V15.2C65.9953 14.112 67.2273 13.28 68.6993 12.704C70.1713 12.096 71.7873 11.792 73.5473 11.792ZM120.36 12.176V33.68C120.36 38.416 119.128 41.936 116.664 44.24C114.2 46.544 110.6 47.696 105.864 47.696C103.368 47.696 101 47.392 98.7601 46.784C96.5201 46.176 94.6641 45.296 93.1921 44.144L96.1681 38.768C97.2561 39.664 98.6321 40.368 100.296 40.88C101.96 41.424 103.624 41.696 105.288 41.696C107.88 41.696 109.784 41.104 111 39.92C112.248 38.768 112.872 37.008 112.872 34.64V33.536C110.92 35.68 108.2 36.752 104.712 36.752C102.344 36.752 100.168 36.24 98.1841 35.216C96.2321 34.16 94.6801 32.688 93.5281 30.8C92.3761 28.912 91.8001 26.736 91.8001 24.272C91.8001 21.808 92.3761 19.632 93.5281 17.744C94.6801 15.856 96.2321 14.4 98.1841 13.376C100.168 12.32 102.344 11.792 104.712 11.792C108.456 11.792 111.304 13.024 113.256 15.488V12.176H120.36ZM106.2 30.608C108.184 30.608 109.8 30.032 111.048 28.88C112.328 27.696 112.968 26.16 112.968 24.272C112.968 22.384 112.328 20.864 111.048 19.712C109.8 18.528 108.184 17.936 106.2 17.936C104.216 17.936 102.584 18.528 101.304 19.712C100.024 20.864 99.3841 22.384 99.3841 24.272C99.3841 26.16 100.024 27.696 101.304 28.88C102.584 30.032 104.216 30.608 106.2 30.608ZM129.729 12.176H137.217V38H129.729V12.176ZM133.473 8.576C132.097 8.576 130.977 8.176 130.113 7.376C129.249 6.576 128.817 5.584 128.817 4.4C128.817 3.216 129.249 2.224 130.113 1.424C130.977 0.623998 132.097 0.223997 133.473 0.223997C134.849 0.223997 135.969 0.607998 136.833 1.376C137.697 2.144 138.129 3.104 138.129 4.256C138.129 5.504 137.697 6.544 136.833 7.376C135.969 8.176 134.849 8.576 133.473 8.576ZM163.223 36.752C162.487 37.296 161.575 37.712 160.487 38C159.431 38.256 158.311 38.384 157.127 38.384C154.055 38.384 151.671 37.6 149.975 36.032C148.311 34.464 147.479 32.16 147.479 29.12V18.512H143.495V12.752H147.479V6.464H154.967V12.752H161.399V18.512H154.967V29.024C154.967 30.112 155.239 30.96 155.783 31.568C156.359 32.144 157.159 32.432 158.183 32.432C159.367 32.432 160.375 32.112 161.207 31.472L163.223 36.752ZM181.317 38.384C178.597 38.384 176.149 37.824 173.973 36.704C171.829 35.552 170.149 33.968 168.933 31.952C167.717 29.936 167.109 27.648 167.109 25.088C167.109 22.528 167.717 20.24 168.933 18.224C170.149 16.208 171.829 14.64 173.973 13.52C176.149 12.368 178.597 11.792 181.317 11.792C184.037 11.792 186.469 12.368 188.613 13.52C190.757 14.64 192.437 16.208 193.653 18.224C194.869 20.24 195.477 22.528 195.477 25.088C195.477 27.648 194.869 29.936 193.653 31.952C192.437 33.968 190.757 35.552 188.613 36.704C186.469 37.824 184.037 38.384 181.317 38.384ZM181.317 32.24C183.237 32.24 184.805 31.6 186.021 30.32C187.269 29.008 187.893 27.264 187.893 25.088C187.893 22.912 187.269 21.184 186.021 19.904C184.805 18.592 183.237 17.936 181.317 17.936C179.397 17.936 177.813 18.592 176.565 19.904C175.317 21.184 174.693 22.912 174.693 25.088C174.693 27.264 175.317 29.008 176.565 30.32C177.813 31.6 179.397 32.24 181.317 32.24ZM210.035 15.584C210.931 14.336 212.131 13.392 213.635 12.752C215.171 12.112 216.931 11.792 218.915 11.792V18.704C218.083 18.64 217.523 18.608 217.235 18.608C215.091 18.608 213.411 19.216 212.195 20.432C210.979 21.616 210.371 23.408 210.371 25.808V38H202.883V12.176H210.035V15.584ZM225.767 12.176H233.255V38H225.767V12.176ZM229.511 8.576C228.135 8.576 227.015 8.176 226.151 7.376C225.287 6.576 224.855 5.584 224.855 4.4C224.855 3.216 225.287 2.224 226.151 1.424C227.015 0.623998 228.135 0.223997 229.511 0.223997C230.887 0.223997 232.007 0.607998 232.871 1.376C233.735 2.144 234.167 3.104 234.167 4.256C234.167 5.504 233.735 6.544 232.871 7.376C232.007 8.176 230.887 8.576 229.511 8.576Z" fill="#114BF5"/>
</svg>
