<svg width="20" height="54" viewBox="0 0 20 54" fill="none" xmlns="http://www.w3.org/2000/svg">
<path d="M7.4487 53.908C4.4967 53.908 2.2467 53.368 0.698703 52.288L2.9667 46.186C3.9387 46.87 5.1267 47.212 6.5307 47.212C7.6107 47.212 8.4567 46.852 9.0687 46.132C9.6807 45.448 9.9867 44.404 9.9867 43V13.948H18.4107V42.946C18.4107 46.33 17.4387 48.994 15.4947 50.938C13.5867 52.918 10.9047 53.908 7.4487 53.908ZM14.1987 9.898C12.6507 9.898 11.3907 9.448 10.4187 8.548C9.4467 7.648 8.9607 6.532 8.9607 5.2C8.9607 3.868 9.4467 2.752 10.4187 1.852C11.3907 0.951997 12.6507 0.501997 14.1987 0.501997C15.7467 0.501997 17.0067 0.933998 17.9787 1.798C18.9507 2.662 19.4367 3.742 19.4367 5.038C19.4367 6.442 18.9507 7.612 17.9787 8.548C17.0067 9.448 15.7467 9.898 14.1987 9.898Z" fill="#114BF5"/>
</svg>
